<svg width="291" height="52" viewBox="0 0 291 52" fill="none" xmlns="http://www.w3.org/2000/svg">
<path d="M76.775 38H71.49V17.42H64.7V13.01H83.565V17.42H76.775V38ZM92.4126 18.54C94.186 18.54 95.7026 18.8783 96.9626 19.555C98.246 20.2317 99.2376 21.2117 99.9376 22.495C100.638 23.7783 100.988 25.3533 100.988 27.22V29.74H88.6676C88.7143 31.21 89.146 32.365 89.9626 33.205C90.8026 34.045 91.9576 34.465 93.4276 34.465C94.6643 34.465 95.7843 34.3483 96.7876 34.115C97.791 33.8583 98.8293 33.4733 99.9026 32.96V36.985C98.9693 37.4517 97.9776 37.79 96.9276 38C95.901 38.2333 94.6526 38.35 93.1826 38.35C91.2693 38.35 89.5776 38 88.1076 37.3C86.6376 36.5767 85.4826 35.4917 84.6426 34.045C83.8026 32.5983 83.3826 30.7783 83.3826 28.585C83.3826 26.345 83.756 24.49 84.5026 23.02C85.2726 21.5267 86.3343 20.4067 87.6876 19.66C89.041 18.9133 90.616 18.54 92.4126 18.54ZM92.4476 22.25C91.4443 22.25 90.6043 22.5767 89.9276 23.23C89.2743 23.8833 88.8893 24.8983 88.7726 26.275H96.0876C96.0876 25.505 95.9476 24.8167 95.6676 24.21C95.411 23.6033 95.0143 23.125 94.4776 22.775C93.941 22.425 93.2643 22.25 92.4476 22.25ZM108.453 28.235L102.293 18.89H108.208L111.918 24.98L115.663 18.89H121.578L115.348 28.235L121.858 38H115.943L111.918 31.455L107.893 38H101.978L108.453 28.235ZM132.817 34.185C133.4 34.185 133.96 34.1267 134.497 34.01C135.034 33.8933 135.57 33.7533 136.107 33.59V37.475C135.547 37.7083 134.847 37.9067 134.007 38.07C133.19 38.2567 132.292 38.35 131.312 38.35C130.169 38.35 129.142 38.1633 128.232 37.79C127.345 37.4167 126.634 36.775 126.097 35.865C125.584 34.9317 125.327 33.6483 125.327 32.015V22.81H122.842V20.605L125.712 18.855L127.217 14.83H130.542V18.89H135.897V22.81H130.542V32.015C130.542 32.7383 130.752 33.2867 131.172 33.66C131.592 34.01 132.14 34.185 132.817 34.185ZM148.133 13.01C150.35 13.01 152.205 13.22 153.698 13.64C155.215 14.0367 156.346 14.7017 157.093 15.635C157.863 16.545 158.248 17.7817 158.248 19.345C158.248 20.2783 158.096 21.13 157.793 21.9C157.49 22.67 157.046 23.3 156.463 23.79C155.903 24.28 155.215 24.595 154.398 24.735V24.91C155.238 25.0733 155.996 25.365 156.673 25.785C157.35 26.205 157.886 26.8117 158.283 27.605C158.68 28.3983 158.878 29.4483 158.878 30.755C158.878 32.2717 158.505 33.5783 157.758 34.675C157.035 35.7483 155.985 36.5767 154.608 37.16C153.231 37.72 151.598 38 149.708 38H140.363V13.01H148.133ZM148.728 22.915C150.268 22.915 151.33 22.67 151.913 22.18C152.52 21.69 152.823 20.9783 152.823 20.045C152.823 19.0883 152.473 18.4 151.773 17.98C151.073 17.56 149.965 17.35 148.448 17.35H145.648V22.915H148.728ZM145.648 27.115V33.625H149.113C150.7 33.625 151.808 33.3217 152.438 32.715C153.068 32.085 153.383 31.2567 153.383 30.23C153.383 29.6 153.243 29.0517 152.963 28.585C152.706 28.1183 152.251 27.7567 151.598 27.5C150.945 27.2433 150.058 27.115 148.938 27.115H145.648ZM180.994 18.89V38H177.004L176.304 35.55H176.024C175.627 36.2033 175.114 36.74 174.484 37.16C173.877 37.5567 173.2 37.8483 172.454 38.035C171.707 38.245 170.937 38.35 170.144 38.35C168.79 38.35 167.6 38.105 166.574 37.615C165.547 37.125 164.754 36.3667 164.194 35.34C163.634 34.3133 163.354 32.9833 163.354 31.35V18.89H168.569V30.055C168.569 31.4083 168.814 32.435 169.304 33.135C169.794 33.835 170.575 34.185 171.649 34.185C172.722 34.185 173.55 33.94 174.134 33.45C174.74 32.96 175.16 32.2483 175.394 31.315C175.65 30.3817 175.779 29.2383 175.779 27.885V18.89H180.994ZM199.796 32.33C199.796 33.6133 199.493 34.71 198.886 35.62C198.28 36.5067 197.37 37.1833 196.156 37.65C194.943 38.1167 193.438 38.35 191.641 38.35C190.311 38.35 189.168 38.2567 188.211 38.07C187.255 37.9067 186.298 37.6267 185.341 37.23V32.925C186.368 33.3917 187.476 33.7767 188.666 34.08C189.856 34.3833 190.906 34.535 191.816 34.535C192.843 34.535 193.566 34.3833 193.986 34.08C194.43 33.7767 194.651 33.38 194.651 32.89C194.651 32.5633 194.558 32.2717 194.371 32.015C194.208 31.7583 193.835 31.4667 193.251 31.14C192.668 30.8133 191.758 30.3933 190.521 29.88C189.331 29.3667 188.351 28.865 187.581 28.375C186.811 27.8617 186.24 27.255 185.866 26.555C185.493 25.8317 185.306 24.9333 185.306 23.86C185.306 22.0867 185.995 20.7567 187.371 19.87C188.748 18.9833 190.58 18.54 192.866 18.54C194.056 18.54 195.188 18.6567 196.261 18.89C197.335 19.1233 198.443 19.5083 199.586 20.045L198.011 23.79C197.381 23.51 196.775 23.265 196.191 23.055C195.608 22.845 195.036 22.6817 194.476 22.565C193.94 22.4483 193.38 22.39 192.796 22.39C192.026 22.39 191.443 22.495 191.046 22.705C190.673 22.915 190.486 23.23 190.486 23.65C190.486 23.9533 190.58 24.2333 190.766 24.49C190.976 24.7233 191.361 24.98 191.921 25.26C192.505 25.54 193.356 25.9133 194.476 26.38C195.573 26.8233 196.518 27.29 197.311 27.78C198.105 28.2467 198.711 28.8417 199.131 29.565C199.575 30.265 199.796 31.1867 199.796 32.33ZM209.074 18.89V38H203.859V18.89H209.074ZM206.484 11.4C207.254 11.4 207.919 11.5867 208.479 11.96C209.039 12.31 209.319 12.975 209.319 13.955C209.319 14.9117 209.039 15.5767 208.479 15.95C207.919 16.3233 207.254 16.51 206.484 16.51C205.691 16.51 205.014 16.3233 204.454 15.95C203.917 15.5767 203.649 14.9117 203.649 13.955C203.649 12.975 203.917 12.31 204.454 11.96C205.014 11.5867 205.691 11.4 206.484 11.4ZM225.373 18.54C227.426 18.54 229.071 19.1 230.308 20.22C231.545 21.3167 232.163 23.09 232.163 25.54V38H226.948V26.835C226.948 25.4583 226.703 24.4317 226.213 23.755C225.723 23.055 224.941 22.705 223.868 22.705C222.281 22.705 221.196 23.2533 220.613 24.35C220.03 25.4233 219.738 26.975 219.738 29.005V38H214.523V18.89H218.513L219.213 21.34H219.493C219.913 20.6867 220.426 20.1617 221.033 19.765C221.64 19.345 222.316 19.0417 223.063 18.855C223.81 18.645 224.58 18.54 225.373 18.54ZM245.401 18.54C247.174 18.54 248.691 18.8783 249.951 19.555C251.234 20.2317 252.226 21.2117 252.926 22.495C253.626 23.7783 253.976 25.3533 253.976 27.22V29.74H241.656C241.703 31.21 242.134 32.365 242.951 33.205C243.791 34.045 244.946 34.465 246.416 34.465C247.653 34.465 248.773 34.3483 249.776 34.115C250.779 33.8583 251.818 33.4733 252.891 32.96V36.985C251.958 37.4517 250.966 37.79 249.916 38C248.889 38.2333 247.641 38.35 246.171 38.35C244.258 38.35 242.566 38 241.096 37.3C239.626 36.5767 238.471 35.4917 237.631 34.045C236.791 32.5983 236.371 30.7783 236.371 28.585C236.371 26.345 236.744 24.49 237.491 23.02C238.261 21.5267 239.323 20.4067 240.676 19.66C242.029 18.9133 243.604 18.54 245.401 18.54ZM245.436 22.25C244.433 22.25 243.593 22.5767 242.916 23.23C242.263 23.8833 241.878 24.8983 241.761 26.275H249.076C249.076 25.505 248.936 24.8167 248.656 24.21C248.399 23.6033 248.003 23.125 247.466 22.775C246.929 22.425 246.253 22.25 245.436 22.25ZM271.54 32.33C271.54 33.6133 271.236 34.71 270.63 35.62C270.023 36.5067 269.113 37.1833 267.9 37.65C266.686 38.1167 265.181 38.35 263.385 38.35C262.055 38.35 260.911 38.2567 259.955 38.07C258.998 37.9067 258.041 37.6267 257.085 37.23V32.925C258.111 33.3917 259.22 33.7767 260.41 34.08C261.6 34.3833 262.65 34.535 263.56 34.535C264.586 34.535 265.31 34.3833 265.73 34.08C266.173 33.7767 266.395 33.38 266.395 32.89C266.395 32.5633 266.301 32.2717 266.115 32.015C265.951 31.7583 265.578 31.4667 264.995 31.14C264.411 30.8133 263.501 30.3933 262.265 29.88C261.075 29.3667 260.095 28.865 259.325 28.375C258.555 27.8617 257.983 27.255 257.61 26.555C257.236 25.8317 257.05 24.9333 257.05 23.86C257.05 22.0867 257.738 20.7567 259.115 19.87C260.491 18.9833 262.323 18.54 264.61 18.54C265.8 18.54 266.931 18.6567 268.005 18.89C269.078 19.1233 270.186 19.5083 271.33 20.045L269.755 23.79C269.125 23.51 268.518 23.265 267.935 23.055C267.351 22.845 266.78 22.6817 266.22 22.565C265.683 22.4483 265.123 22.39 264.54 22.39C263.77 22.39 263.186 22.495 262.79 22.705C262.416 22.915 262.23 23.23 262.23 23.65C262.23 23.9533 262.323 24.2333 262.51 24.49C262.72 24.7233 263.105 24.98 263.665 25.26C264.248 25.54 265.1 25.9133 266.22 26.38C267.316 26.8233 268.261 27.29 269.055 27.78C269.848 28.2467 270.455 28.8417 270.875 29.565C271.318 30.265 271.54 31.1867 271.54 32.33ZM288.937 32.33C288.937 33.6133 288.634 34.71 288.027 35.62C287.42 36.5067 286.51 37.1833 285.297 37.65C284.084 38.1167 282.579 38.35 280.782 38.35C279.452 38.35 278.309 38.2567 277.352 38.07C276.395 37.9067 275.439 37.6267 274.482 37.23V32.925C275.509 33.3917 276.617 33.7767 277.807 34.08C278.997 34.3833 280.047 34.535 280.957 34.535C281.984 34.535 282.707 34.3833 283.127 34.08C283.57 33.7767 283.792 33.38 283.792 32.89C283.792 32.5633 283.699 32.2717 283.512 32.015C283.349 31.7583 282.975 31.4667 282.392 31.14C281.809 30.8133 280.899 30.3933 279.662 29.88C278.472 29.3667 277.492 28.865 276.722 28.375C275.952 27.8617 275.38 27.255 275.007 26.555C274.634 25.8317 274.447 24.9333 274.447 23.86C274.447 22.0867 275.135 20.7567 276.512 19.87C277.889 18.9833 279.72 18.54 282.007 18.54C283.197 18.54 284.329 18.6567 285.402 18.89C286.475 19.1233 287.584 19.5083 288.727 20.045L287.152 23.79C286.522 23.51 285.915 23.265 285.332 23.055C284.749 22.845 284.177 22.6817 283.617 22.565C283.08 22.4483 282.52 22.39 281.937 22.39C281.167 22.39 280.584 22.495 280.187 22.705C279.814 22.915 279.627 23.23 279.627 23.65C279.627 23.9533 279.72 24.2333 279.907 24.49C280.117 24.7233 280.502 24.98 281.062 25.26C281.645 25.54 282.497 25.9133 283.617 26.38C284.714 26.8233 285.659 27.29 286.452 27.78C287.245 28.2467 287.852 28.8417 288.272 29.565C288.715 30.265 288.937 31.1867 288.937 32.33Z" fill="white"/>
<g clip-path="url(#clip0_14_463)">
<path d="M29.5715 49.2143H6.3572C5.40999 49.2143 4.50159 48.838 3.83181 48.1682C3.16204 47.4985 2.78577 46.5901 2.78577 45.6428V6.35713C2.78577 5.40993 3.16204 4.50153 3.83181 3.83175C4.50159 3.16198 5.40999 2.78571 6.3572 2.78571H33.1429M38.5001 34.9286H49.2143M13.5001 2.78571V49.2143M22.4286 15.2857H29.5715M38.5001 13.5L43.8572 2.78571L49.2143 13.5V43.8571C49.2143 45.2779 48.6499 46.6405 47.6453 47.6452C46.6406 48.6499 45.278 49.2143 43.8572 49.2143C42.4364 49.2143 41.0738 48.6499 40.0691 47.6452C39.0645 46.6405 38.5001 45.2779 38.5001 43.8571V13.5Z" stroke="#7DEEC8" stroke-width="5" stroke-linecap="round" stroke-linejoin="round"/>
</g>
<defs>
<clipPath id="clip0_14_463">
<rect width="52" height="52" fill="white"/>
</clipPath>
</defs>
</svg>
