<svg width="50" height="50" viewBox="0 0 50 50" fill="none" xmlns="http://www.w3.org/2000/svg">
<path d="M23.4 13.4V10.1C23.4 9.80826 23.5159 9.52847 23.7222 9.32218C23.9285 9.11589 24.2083 9 24.5 9C24.7917 9 25.0715 9.11589 25.2778 9.32218C25.4841 9.52847 25.6 9.80826 25.6 10.1V13.4C25.6 13.6917 25.4841 13.9715 25.2778 14.1778C25.0715 14.3841 24.7917 14.5 24.5 14.5C24.2083 14.5 23.9285 14.3841 23.7222 14.1778C23.5159 13.9715 23.4 13.6917 23.4 13.4ZM33.3 25.5C33.3 27.2405 32.7839 28.9419 31.8169 30.389C30.85 31.8362 29.4756 32.9641 27.8676 33.6301C26.2596 34.2962 24.4902 34.4705 22.7832 34.1309C21.0762 33.7914 19.5082 32.9532 18.2775 31.7225C17.0468 30.4918 16.2086 28.9238 15.8691 27.2168C15.5295 25.5098 15.7038 23.7404 16.3699 22.1324C17.0359 20.5244 18.1638 19.15 19.611 18.1831C21.0581 17.2161 22.7595 16.7 24.5 16.7C26.8331 16.7025 29.07 17.6305 30.7197 19.2803C32.3695 20.93 33.2975 23.1669 33.3 25.5ZM31.1 25.5C31.1 24.1946 30.7129 22.9186 29.9877 21.8332C29.2625 20.7479 28.2317 19.9019 27.0257 19.4024C25.8197 18.9029 24.4927 18.7722 23.2124 19.0268C21.9321 19.2815 20.7561 19.9101 19.8331 20.8331C18.9101 21.7561 18.2815 22.9321 18.0268 24.2124C17.7722 25.4927 17.9029 26.8197 18.4024 28.0257C18.9019 29.2317 19.7479 30.2625 20.8332 30.9877C21.9186 31.7129 23.1946 32.1 24.5 32.1C26.2499 32.0982 27.9276 31.4022 29.1649 30.1649C30.4022 28.9276 31.0982 27.2499 31.1 25.5ZM14.9218 17.4783C15.1282 17.6847 15.4081 17.8006 15.7 17.8006C15.9919 17.8006 16.2718 17.6847 16.4782 17.4782C16.6847 17.2718 16.8006 16.9919 16.8006 16.7C16.8006 16.4081 16.6847 16.1282 16.4783 15.9218L14.2783 13.7218C14.0718 13.5153 13.7919 13.3994 13.5 13.3994C13.2081 13.3994 12.9282 13.5153 12.7218 13.7218C12.5153 13.9282 12.3994 14.2081 12.3994 14.5C12.3994 14.7919 12.5153 15.0718 12.7218 15.2783L14.9218 17.4783ZM14.9218 33.5218L12.7218 35.7218C12.5153 35.9282 12.3994 36.2081 12.3994 36.5C12.3994 36.7919 12.5153 37.0718 12.7218 37.2783C12.9282 37.4847 13.2081 37.6006 13.5 37.6006C13.7919 37.6006 14.0718 37.4847 14.2783 37.2783L16.4783 35.0783C16.5805 34.976 16.6615 34.8547 16.7168 34.7212C16.7721 34.5877 16.8006 34.4445 16.8006 34.3C16.8006 34.1555 16.7721 34.0123 16.7168 33.8788C16.6615 33.7453 16.5805 33.624 16.4783 33.5218C16.376 33.4195 16.2547 33.3385 16.1212 33.2832C15.9877 33.2279 15.8445 33.1994 15.7 33.1994C15.5555 33.1994 15.4123 33.2279 15.2788 33.2832C15.1453 33.3385 15.024 33.4195 14.9218 33.5218ZM33.3 17.8C33.4445 17.8001 33.5876 17.7718 33.7211 17.7165C33.8547 17.6613 33.976 17.5804 34.0783 17.4783L36.2783 15.2783C36.4847 15.0718 36.6006 14.7919 36.6006 14.5C36.6006 14.2081 36.4847 13.9282 36.2783 13.7218C36.0718 13.5153 35.7919 13.3994 35.5 13.3994C35.2081 13.3994 34.9282 13.5153 34.7218 13.7218L32.5218 15.9218C32.3677 16.0756 32.2628 16.2717 32.2203 16.4852C32.1778 16.6987 32.1996 16.92 32.2829 17.1211C32.3662 17.3222 32.5074 17.494 32.6884 17.6149C32.8695 17.7358 33.0823 17.8002 33.3 17.8ZM34.0783 33.5218C33.8718 33.3153 33.5919 33.1994 33.3 33.1994C33.0081 33.1994 32.7282 33.3153 32.5218 33.5218C32.3153 33.7282 32.1994 34.0081 32.1994 34.3C32.1994 34.5919 32.3153 34.8718 32.5218 35.0783L34.7218 37.2783C34.824 37.3805 34.9453 37.4615 35.0788 37.5168C35.2123 37.5721 35.3555 37.6006 35.5 37.6006C35.6445 37.6006 35.7877 37.5721 35.9212 37.5168C36.0547 37.4615 36.176 37.3805 36.2783 37.2783C36.3805 37.176 36.4615 37.0547 36.5168 36.9212C36.5721 36.7877 36.6006 36.6445 36.6006 36.5C36.6006 36.3555 36.5721 36.2123 36.5168 36.0788C36.4615 35.9453 36.3805 35.824 36.2783 35.7218L34.0783 33.5218ZM13.5 25.5C13.5 25.2083 13.3841 24.9285 13.1778 24.7222C12.9715 24.5159 12.6917 24.4 12.4 24.4H9.1C8.80826 24.4 8.52847 24.5159 8.32218 24.7222C8.11589 24.9285 8 25.2083 8 25.5C8 25.7917 8.11589 26.0715 8.32218 26.2778C8.52847 26.4841 8.80826 26.6 9.1 26.6H12.4C12.6917 26.6 12.9715 26.4841 13.1778 26.2778C13.3841 26.0715 13.5 25.7917 13.5 25.5ZM24.5 36.5C24.2083 36.5 23.9285 36.6159 23.7222 36.8222C23.5159 37.0285 23.4 37.3083 23.4 37.6V40.9C23.4 41.1917 23.5159 41.4715 23.7222 41.6778C23.9285 41.8841 24.2083 42 24.5 42C24.7917 42 25.0715 41.8841 25.2778 41.6778C25.4841 41.4715 25.6 41.1917 25.6 40.9V37.6C25.6 37.3083 25.4841 37.0285 25.2778 36.8222C25.0715 36.6159 24.7917 36.5 24.5 36.5ZM39.9 24.4H36.6C36.3083 24.4 36.0285 24.5159 35.8222 24.7222C35.6159 24.9285 35.5 25.2083 35.5 25.5C35.5 25.7917 35.6159 26.0715 35.8222 26.2778C36.0285 26.4841 36.3083 26.6 36.6 26.6H39.9C40.1917 26.6 40.4715 26.4841 40.6778 26.2778C40.8841 26.0715 41 25.7917 41 25.5C41 25.2083 40.8841 24.9285 40.6778 24.7222C40.4715 24.5159 40.1917 24.4 39.9 24.4Z" fill="#F9FBFC"/>
</svg>
