<svg width="50" height="50" viewBox="0 0 50 50" fill="none" xmlns="http://www.w3.org/2000/svg">
<path d="M13.0233 25.5C13.0233 28.809 14.3378 31.9825 16.6776 34.3224C19.0175 36.6622 22.191 37.9767 25.5 37.9767V40C17.492 40 11 33.508 11 25.5H13.0233ZM25.5 37.9767C28.809 37.9767 31.9825 36.6622 34.3224 34.3224C36.6622 31.9825 37.9767 28.809 37.9767 25.5H40C40 33.508 33.508 40 25.5 40V37.9767ZM37.9767 25.5C37.9767 22.191 36.6622 19.0175 34.3224 16.6776C31.9825 14.3378 28.809 13.0233 25.5 13.0233V11C33.508 11 40 17.492 40 25.5H37.9767ZM20.7791 28.5349C22.836 28.5349 24.8088 27.7178 26.2633 26.2633C27.7178 24.8088 28.5349 22.836 28.5349 20.7791H30.5581C30.5581 23.3726 29.5278 25.86 27.6939 27.6939C25.86 29.5278 23.3726 30.5581 20.7791 30.5581V28.5349ZM14.136 24.7838C14.8258 25.9288 15.8001 26.876 16.9641 27.5333C18.1281 28.1906 19.4423 28.5356 20.7791 28.5349V30.5581C19.0938 30.559 17.4369 30.1242 15.9692 29.2958C14.5016 28.4675 13.273 27.2737 12.4028 25.8305L14.136 24.7838ZM28.5349 20.7791C28.5355 19.4423 28.1904 18.1282 27.5331 16.9642C26.8758 15.8002 25.9287 14.8259 24.7838 14.136L25.8305 12.4041C27.2736 13.2741 28.4673 14.5025 29.2957 15.9699C30.124 17.4373 30.5589 19.094 30.5581 20.7791H28.5349ZM25.5 13.0233C25.6368 13.02 25.7667 12.9628 25.8615 12.8641C25.9194 12.8078 25.9581 12.7346 25.9721 12.655C25.9775 12.6132 25.9748 12.4918 25.8305 12.4041L24.7838 14.136C24.1053 13.726 23.8868 12.9747 23.9664 12.3839C24.05 11.7702 24.5329 11 25.5 11V13.0233ZM12.4028 25.8305C12.4918 25.9748 12.6132 25.9775 12.655 25.9721C12.7346 25.9581 12.8078 25.9194 12.8641 25.8615C12.9628 25.7667 13.02 25.6368 13.0233 25.5H11C11 24.5329 11.7702 24.05 12.3839 23.9664C12.9747 23.8868 13.726 24.1053 14.136 24.7838L12.4028 25.8305Z" fill="#F9FBFC"/>
</svg>
