<svg width="50" height="50" viewBox="0 0 50 50" fill="none" xmlns="http://www.w3.org/2000/svg">
<path d="M35.5682 13.6364H14.4318C11.0061 13.6364 7.72069 14.9932 5.29834 17.4085C2.876 19.8237 1.51514 23.0995 1.51514 26.5151C1.51514 29.9308 2.876 33.2066 5.29834 35.6218C7.72069 38.0371 11.0061 39.3939 14.4318 39.3939H35.5682C38.9939 39.3939 42.2793 38.0371 44.7016 35.6218C47.124 33.2066 48.4848 29.9308 48.4848 26.5151C48.4848 23.0995 47.124 19.8237 44.7016 17.4085C42.2793 14.9932 38.9939 13.6364 35.5682 13.6364ZM35.5682 37.0523H14.4318C11.6289 37.0523 8.94089 35.9422 6.95897 33.9661C4.97705 31.99 3.86362 29.3098 3.86362 26.5151C3.86362 23.7205 4.97705 21.0403 6.95897 19.0642C8.94089 17.0881 11.6289 15.978 14.4318 15.978H35.5682C38.371 15.978 41.0591 17.0881 43.041 19.0642C45.0229 21.0403 46.1363 23.7205 46.1363 26.5151C46.1363 29.3098 45.0229 31.99 43.041 33.9661C41.0591 35.9422 38.371 37.0523 35.5682 37.0523ZM35.5682 20.6611C34.011 20.6611 32.5177 21.2779 31.4166 22.3757C30.3155 23.4736 29.697 24.9626 29.697 26.5151C29.697 28.0677 30.3155 29.5567 31.4166 30.6545C32.5177 31.7524 34.011 32.3691 35.5682 32.3691C37.1253 32.3691 38.6187 31.7524 39.7197 30.6545C40.8208 29.5567 41.4394 28.0677 41.4394 26.5151C41.4394 24.9626 40.8208 23.4736 39.7197 22.3757C38.6187 21.2779 37.1253 20.6611 35.5682 20.6611ZM35.5682 30.0275C34.6339 30.0275 33.7379 29.6575 33.0772 28.9988C32.4166 28.3401 32.0454 27.4467 32.0454 26.5151C32.0454 25.5836 32.4166 24.6902 33.0772 24.0315C33.7379 23.3728 34.6339 23.0027 35.5682 23.0027C36.5025 23.0027 37.3985 23.3728 38.0591 24.0315C38.7197 24.6902 39.0909 25.5836 39.0909 26.5151C39.0909 27.4467 38.7197 28.3401 38.0591 28.9988C37.3985 29.6575 36.5025 30.0275 35.5682 30.0275Z" fill="#F9FBFC"/>
</svg>
