<svg width="50" height="50" viewBox="0 0 50 50" fill="none" xmlns="http://www.w3.org/2000/svg">
<path d="M14.4318 13.6364H35.5682C38.9939 13.6364 42.2793 14.9932 44.7017 17.4085C47.124 19.8237 48.4849 23.0995 48.4849 26.5151C48.4849 29.9308 47.124 33.2066 44.7017 35.6218C42.2793 38.0371 38.9939 39.3939 35.5682 39.3939H14.4318C11.0061 39.3939 7.72072 38.0371 5.29837 35.6218C2.87603 33.2066 1.51517 29.9308 1.51517 26.5151C1.51517 23.0995 2.87603 19.8237 5.29837 17.4085C7.72072 14.9932 11.0061 13.6364 14.4318 13.6364ZM14.4318 37.0523H35.5682C38.3711 37.0523 41.0591 35.9422 43.041 33.9661C45.0229 31.99 46.1364 29.3098 46.1364 26.5151C46.1364 23.7205 45.0229 21.0403 43.041 19.0642C41.0591 17.0881 38.3711 15.978 35.5682 15.978H14.4318C11.629 15.978 8.94092 17.0881 6.959 19.0642C4.97708 21.0403 3.86365 23.7205 3.86365 26.5151C3.86365 29.3098 4.97708 31.99 6.959 33.9661C8.94092 35.9422 11.629 37.0523 14.4318 37.0523ZM14.4318 20.6611C15.989 20.6611 17.4823 21.2779 18.5834 22.3757C19.6845 23.4736 20.303 24.9626 20.303 26.5151C20.303 28.0677 19.6845 29.5567 18.5834 30.6545C17.4823 31.7524 15.989 32.3691 14.4318 32.3691C12.8747 32.3691 11.3813 31.7524 10.2803 30.6545C9.17919 29.5567 8.56062 28.0677 8.56062 26.5151C8.56062 24.9626 9.17919 23.4736 10.2803 22.3757C11.3813 21.2779 12.8747 20.6611 14.4318 20.6611ZM14.4318 30.0275C15.3661 30.0275 16.2621 29.6575 16.9228 28.9988C17.5834 28.3401 17.9546 27.4467 17.9546 26.5151C17.9546 25.5836 17.5834 24.6902 16.9228 24.0315C16.2621 23.3728 15.3661 23.0027 14.4318 23.0027C13.4975 23.0027 12.6015 23.3728 11.9409 24.0315C11.2803 24.6902 10.9091 25.5836 10.9091 26.5151C10.9091 27.4467 11.2803 28.3401 11.9409 28.9988C12.6015 29.6575 13.4975 30.0275 14.4318 30.0275Z" fill="#F9FBFC"/>
</svg>
